# File created by Blade
# Date/Time:  Tue Apr 07 20:22:24 2015
#---------------------------------------------------------
:version 1.10
:name HOM
:units
  mass 1.0
  length 1.000000
  angle deg
:documentation
     Acclaim Skeleton File
:root
   axis xyz
   order TX TY TZ RX RY RZ
   position 0.000000 0.000000 0.000000
   orientation 0 0 0
:bonedata
   begin
      id 1
      name Spine_dum
      direction 0.000000 1.000000 0.000000
      length 4.885285
      axis 0.0 0.0 0.0 xyz
   end
   begin
      id 2
      name LeftUpLeg_dum
      direction 1.000000 0.000000 0.000000
      length 2.672193
      axis 0.0 0.0 0.0 xyz
   end
   begin
      id 3
      name RightUpLeg_dum
      direction -1.000000 0.000000 0.000000
      length 2.672193
      axis 0.0 0.0 0.0 xyz
   end
   begin
      id 4
      name Spine
      direction 0.000000 1.000000 0.000000
      length 0.000000
      axis 0.0 0.0 0.0 xyz
      dof rx ry rz
   end
   begin
      id 5
      name Spine_dum1
      direction 0.000000 1.000000 0.000000
      length 16.494159
      axis 0.0 0.0 0.0 xyz
   end
   begin
      id 6
      name Spine_dum2
      direction 0.000000 1.000000 0.000000
      length 10.663448
      axis 0.0 0.0 0.0 xyz
   end
   begin
      id 7
      name Spine_dum3
      direction 0.000000 1.000000 0.000000
      length 10.663448
      axis 0.0 0.0 0.0 xyz
   end
   begin
      id 8
      name Head
      direction 0.000000 1.000000 0.000000
      length 4.527550
      axis 0.0 0.0 0.0 xyz
      dof rx ry rz
   end
   begin
      id 9
      name LeftShoulder
      direction 1.000000 0.000000 0.000000
      length 7.531907
      axis 0.0 0.0 -90.0 xyz
      dof rx ry rz
   end
   begin
      id 10
      name LeftArm
      direction 1.000000 0.000000 0.000000
      length 10.229199
      axis 0.0 0.0 -90.0 xyz
      dof rx ry rz
   end
   begin
      id 11
      name LeftForeArm
      direction 1.000000 0.000000 0.000000
      length 8.673495
      axis 0.0 0.0 -90.0 xyz
      dof ry rz rx
   end
   begin
      id 12
      name LeftHand
      direction 0.000000 0.000000 0.000000
      length 0.000000
      axis 0.0 0.0 -90.0 xyz
      dof rx ry rz
   end
   begin
      id 13
      name LeftHand_dum1
      direction 0.000000 0.000000 0.000000
      length 0.000000
      axis 0.0 0.0 -90.0 xyz
   end
   begin
      id 14
      name LeftHand_dum2
      direction 1.000000 0.000000 0.000000
      length 3.937000
      axis 0.0 0.0 -90.0 xyz
   end
   begin
      id 15
      name LeftHandThumb1
      direction 0.000000 0.000000 1.000000
      length 3.937000
      axis 0.0 0.0 -90.0 xyz
      dof rx rz ry
   end
   begin
      id 16
      name RightShoulder
      direction -1.000000 0.000000 0.000000
      length 7.531907
      axis 0.0 0.0 90.0 xyz
      dof rx ry rz
   end
   begin
      id 17
      name RightArm
      direction -1.000000 0.000000 0.000000
      length 10.229199
      axis 0.0 0.0 90.0 xyz
      dof rx ry rz
   end
   begin
      id 18
      name RightForeArm
      direction -1.000000 0.000000 0.000000
      length 8.673495
      axis 0.0 0.0 90.0 xyz
      dof ry rz rx
   end
   begin
      id 19
      name RightHand
      direction 0.000000 0.000000 0.000000
      length 0.000000
      axis 0.0 0.0 90.0 xyz
      dof rx ry rz
   end
   begin
      id 20
      name RightHand_dum1
      direction 0.000000 0.000000 0.000000
      length 0.000000
      axis 0.0 0.0 90.0 xyz
   end
   begin
      id 21
      name RightHand_dum2
      direction -1.000000 0.000000 0.000000
      length 3.937000
      axis 0.0 0.0 90.0 xyz
   end
   begin
      id 22
      name RightHandThumb1
      direction 0.000000 0.000000 1.000000
      length 3.937000
      axis 0.0 0.0 90.0 xyz
      dof rx rz ry
   end
   begin
      id 23
      name LeftUpLeg
      direction 0.000000 -1.000000 0.000000
      length 16.263388
      axis 0.0 0.0 0.0 xyz
      dof rx ry rz
   end
   begin
      id 24
      name LeftLeg
      direction 0.000000 -1.000000 0.000000
      length 14.328163
      axis 0.0 0.0 0.0 xyz
      dof rx ry rz
   end
   begin
      id 25
      name LeftFoot
      direction 0.000000 -0.258819 0.965926
      length 5.031290
      axis 15.0 0.0 0.0 xyz
      dof rx ry rz
   end
   begin
      id 26
      name LeftToeBase
      direction 0.000000 0.000000 1.000000
      length 2.952750
      axis 0.0 0.0 0.0 xyz
      dof rx ry rz
   end
   begin
      id 27
      name RightUpLeg
      direction 0.000000 -1.000000 0.000000
      length 16.263388
      axis 0.0 0.0 0.0 xyz
      dof rx ry rz
   end
   begin
      id 28
      name RightLeg
      direction 0.000000 -1.000000 0.000000
      length 14.328163
      axis 0.0 0.0 0.0 xyz
      dof rx ry rz
   end
   begin
      id 29
      name RightFoot
      direction 0.000000 -0.258819 0.965926
      length 5.031290
      axis 15.0 0.0 0.0 xyz
      dof rx ry rz
   end
   begin
      id 30
      name RightToeBase
      direction 0.000000 0.000000 1.000000
      length 2.952750
      axis 0.0 0.0 0.0 xyz
      dof rx ry rz
   end
:hierarchy
   begin
      root Spine_dum LeftUpLeg_dum RightUpLeg_dum
      Spine_dum Spine
      LeftUpLeg_dum LeftUpLeg
      RightUpLeg_dum RightUpLeg
      Spine Spine_dum1 Spine_dum2 Spine_dum3
      Spine_dum1 Head
      Spine_dum2 LeftShoulder
      Spine_dum3 RightShoulder
      LeftShoulder LeftArm
      LeftArm LeftForeArm
      LeftForeArm LeftHand
      LeftHand LeftHand_dum1 LeftHand_dum2
      LeftHand_dum1 LeftHandThumb1
      RightShoulder RightArm
      RightArm RightForeArm
      RightForeArm RightHand
      RightHand RightHand_dum1 RightHand_dum2
      RightHand_dum1 RightHandThumb1
      LeftUpLeg LeftLeg
      LeftLeg LeftFoot
      LeftFoot LeftToeBase
      RightUpLeg RightLeg
      RightLeg RightFoot
      RightFoot RightToeBase
   end

# File created by Blade
# Date/Time:  Tue Apr 07 20:22:14 2015
# Frame Rate: 120.000 fps
#------------------------------------------------------
:FULLY-SPECIFIED
:DEGREES
388
root 5.077189 34.187383 -10.594748 27.020041 -29.084537 -42.969843
Spine 6.873456 20.648092 28.687742
Head -6.821273 3.710658 9.527673
LeftShoulder -22.129200 40.829709 16.972865
LeftArm 56.521015 -55.212695 -83.338449
LeftForeArm -4.190003 -0.000000 10.883209
LeftHand 11.604497 -0.000000 7.700437
LeftHandThumb1 -26.253704 0.000000 33.147579
RightShoulder 6.054523 10.353510 -14.718829
RightArm 25.861572 -2.685055 86.709833
RightForeArm 6.005436 -0.000000 2.610580
RightHand 1.516397 -0.000000 0.491657
RightHandThumb1 -24.326973 -0.000000 -32.862282
LeftUpLeg -9.820922 7.858050 30.252054
LeftLeg 15.747524 -0.000000 -0.000000
LeftFoot -11.206339 23.150509 -9.294837
LeftToeBase -9.804872 -0.000000 0.000000
RightUpLeg -84.119927 -43.576606 -12.230291
RightLeg 65.037945 -0.000000 -0.000000
RightFoot 39.302463 -9.070726 -3.449404
RightToeBase 29.047876 -0.000000 -0.000000
389
root 5.070638 34.171098 -10.623821 27.121995 -29.109870 -43.226411
Spine 6.961915 20.682818 28.762893
Head -6.979079 3.728139 9.708259
LeftShoulder -22.185035 40.818403 16.922422
LeftArm 57.064903 -55.643090 -83.803425
LeftForeArm -4.107660 0.000000 11.466396
LeftHand 11.637782 -0.000000 8.229919
LeftHandThumb1 -26.253704 0.000000 33.147579
RightShoulder 6.117177 10.524568 -14.565148
RightArm 26.007194 -2.320037 86.419065
RightForeArm 5.843268 -0.000000 2.694585
RightHand 1.666169 -0.000000 0.487234
RightHandThumb1 -24.326973 -0.000000 -32.862282
LeftUpLeg -9.896809 7.932164 30.443303
LeftLeg 16.017727 -0.000000 -0.000000
LeftFoot -11.771016 23.421155 -9.784778
LeftToeBase -8.670027 -0.000000 0.000000
RightUpLeg -82.869412 -43.751501 -13.765347
RightLeg 62.384136 -0.000000 -0.000000
RightFoot 39.636878 -9.168644 -3.966543
RightToeBase 28.438449 -0.000000 -0.000000
390
root 5.051218 34.162295 -10.644321 27.140555 -29.071788 -43.545039
Spine 7.118927 20.680382 28.940194
Head -7.106619 3.704138 9.920622
LeftShoulder -22.217965 40.824995 16.921676
LeftArm 57.580451 -55.956598 -84.250058
LeftForeArm -4.164213 0.000000 12.062896
LeftHand 11.727544 -0.000000 8.173705
LeftHandThumb1 -26.253704 0.000000 33.147579
RightShoulder 6.128168 10.625679 -14.425030
RightArm 26.109722 -2.299425 85.987428
RightForeArm 5.875060 -0.000000 2.934934
RightHand 1.618656 -0.000000 0.520217
RightHandThumb1 -24.326973 -0.000000 -32.862282
LeftUpLeg -9.860295 7.866256 30.745697
LeftLeg 16.272793 -0.000000 -0.000000
LeftFoot -12.166659 23.724619 -9.964286
LeftToeBase -8.335445 -0.000000 0.000000
RightUpLeg -81.369256 -43.907695 -15.353555
RightLeg 59.704101 -0.000000 -0.000000
RightFoot 39.754389 -9.593299 -4.189964
RightToeBase 28.005403 -0.000000 -0.000000
391
root 5.033421 34.158923 -10.659897 27.150319 -29.008014 -43.879830
Spine 7.270390 20.648906 29.163447
Head -7.177280 3.700428 10.117138
LeftShoulder -22.269537 40.924235 16.880763
LeftArm 58.061343 -56.188326 -84.664140
LeftForeArm -4.163381 -0.000000 12.726312
LeftHand 11.693944 -0.000000 8.423767
LeftHandThumb1 -26.253704 0.000000 33.147579
RightShoulder 6.166864 10.706636 -14.314812
RightArm 26.172194 -2.228103 85.597397
RightForeArm 6.013076 -0.000000 3.209677
RightHand 1.820849 -0.000000 0.128221
RightHandThumb1 -24.326973 -0.000000 -32.862282
LeftUpLeg -9.830981 7.757982 31.058214
LeftLeg 16.531575 -0.000000 -0.000000
LeftFoot -12.469073 24.094740 -10.054324
LeftToeBase -8.215092 -0.000000 0.000000
RightUpLeg -79.835867 -44.088808 -16.822007
RightLeg 56.911569 -0.000000 -0.000000
RightFoot 39.706623 -10.235554 -4.107330
RightToeBase 28.867416 -0.000000 -0.000000
392
root 5.017744 34.159382 -10.672274 27.193841 -28.970508 -44.243126
Spine 7.413509 20.694391 29.410740
Head -7.238104 3.648059 10.316016
LeftShoulder -22.262462 40.925269 16.937025
LeftArm 58.372549 -56.344539 -84.971795
LeftForeArm -4.092965 -0.000000 13.364261
LeftHand 11.806326 -0.000000 8.701260
LeftHandThumb1 -26.253704 0.000000 33.147579
RightShoulder 6.136723 10.700223 -14.260877
RightArm 26.294880 -2.055732 85.304061
RightForeArm 6.020887 -0.000000 3.466825
RightHand 2.030412 -0.000000 -0.141843
RightHandThumb1 -24.326973 -0.000000 -32.862282
LeftUpLeg -9.794477 7.633471 31.385758
LeftLeg 16.791193 -0.000000 -0.000000
LeftFoot -12.722232 24.437858 -10.143272
LeftToeBase -8.083249 -0.000000 0.000000
RightUpLeg -78.272267 -44.206673 -18.238047
RightLeg 54.069128 -0.000000 -0.000000
RightFoot 39.810584 -10.624464 -4.338133
RightToeBase 28.621166 -0.000000 -0.000000
393
root 4.999217 34.164711 -10.682083 27.264029 -28.954897 -44.644740
Spine 7.550697 20.750395 29.670228
Head -7.276544 3.652629 10.530351
LeftShoulder -22.346512 41.078361 16.916735
LeftArm 58.789683 -56.405908 -85.331358
LeftForeArm -4.050282 -0.000000 13.999545
LeftHand 11.869190 0.000000 8.839401
LeftHandThumb1 -26.253704 0.000000 33.147579
RightShoulder 6.091422 10.672307 -14.244055
RightArm 26.416494 -2.015984 85.024887
RightForeArm 6.101433 -0.000000 3.770869
RightHand 2.052491 -0.000000 -0.408053
RightHandThumb1 -24.326973 -0.000000 -32.862282
LeftUpLeg -9.714456 7.493813 31.746139
LeftLeg 17.001137 -0.000000 -0.000000
LeftFoot -12.931879 24.810037 -10.233358
LeftToeBase -7.982525 -0.000000 0.000000
RightUpLeg -76.781410 -44.275994 -19.507855
RightLeg 51.314868 -0.000000 -0.000000
RightFoot 39.948303 -10.602843 -5.285445
RightToeBase 28.106819 -0.000000 -0.000000
